<?xml version="1.0" standalone="no"?>
<!DOCTYPE svg PUBLIC "-//W3C//DTD SVG 20010904//EN"
 "http://www.w3.org/TR/2001/REC-SVG-20010904/DTD/svg10.dtd">
<svg version="1.0" xmlns="http://www.w3.org/2000/svg"
 width="300.000000pt" height="300.000000pt" viewBox="0 0 300.000000 300.000000"
 preserveAspectRatio="xMidYMid meet">
<metadata>
Created by potrace 1.14, written by Peter Selinger 2001-2017
</metadata>
<g transform="translate(0.000000,300.000000) scale(0.100000,-0.100000)"
fill="#000000" stroke="none">
<path d="M1320 2990 c-188 -26 -341 -74 -511 -161 -403 -208 -682 -579 -780
-1039 -33 -151 -33 -429 0 -580 98 -460 376 -830 781 -1039 132 -68 249 -110
400 -142 151 -33 429 -33 580 0 151 32 268 74 400 142 405 209 683 579 781
1039 33 151 33 429 0 580 -98 460 -376 830 -781 1039 -215 111 -403 159 -650
166 -85 2 -184 0 -220 -5z m560 -584 c144 -24 257 -74 293 -130 14 -21 82
-194 152 -383 l38 -103 51 0 c73 0 109 -25 135 -95 25 -67 26 -83 4 -107 -11
-13 -30 -18 -65 -18 -26 0 -48 -2 -48 -4 0 -3 4 -16 10 -30 6 -16 10 -181 10
-398 1 -463 23 -418 -207 -418 -161 0 -164 0 -188 25 -22 22 -25 32 -25 105
l0 80 -529 0 -529 0 -3 -79 c-4 -67 -8 -83 -28 -105 -24 -26 -25 -26 -188 -26
-161 0 -164 0 -188 25 l-25 24 0 363 c1 277 4 372 14 401 l14 37 -48 0 c-32 0
-56 6 -71 19 l-23 18 18 61 c26 86 60 116 138 122 l61 5 72 200 c40 111 82
219 93 242 53 104 192 163 430 183 144 12 527 4 632 -14z"/>
<path d="M1245 2260 c-201 -18 -275 -46 -305 -115 -47 -110 -125 -374 -113
-386 25 -23 327 -64 553 -74 275 -12 757 34 804 76 5 4 -1 42 -13 86 -20 77
-102 311 -116 334 -13 21 -90 48 -181 64 -104 19 -489 28 -629 15z"/>
<path d="M675 1464 c-12 -13 -15 -33 -13 -92 3 -75 3 -76 38 -96 30 -18 55
-21 180 -24 163 -3 193 4 198 51 5 38 -10 53 -87 92 -155 77 -280 105 -316 69z"/>
<path d="M2139 1446 c-177 -70 -218 -100 -205 -152 9 -36 43 -44 174 -44 179
1 234 19 247 82 9 40 -3 114 -21 133 -25 25 -100 18 -195 -19z"/>
</g>
</svg>
